<svg version="1.1" id="Layer_1" xmlns="http://www.w3.org/2000/svg" xmlns:xlink="http://www.w3.org/1999/xlink" x="0px" y="0px"
	 width="100%" viewBox="0 0 512 512" enable-background="new 0 0 512 512" xml:space="preserve">
<path fill="#018001" opacity="1.000000" stroke="none" 
	d="
M336.000000,513.000000 
	C224.027206,513.000000 112.554405,513.000000 1.040803,513.000000 
	C1.040803,342.402191 1.040803,171.804352 1.040803,1.103257 
	C171.556137,1.103257 342.112366,1.103257 512.834290,1.103257 
	C512.834290,171.666534 512.834290,342.333252 512.834290,513.000000 
	C454.137665,513.000000 395.318817,513.000000 336.000000,513.000000 
M229.759811,78.532158 
	C206.603485,83.332191 186.200119,93.528725 168.675064,108.186218 
	C177.750534,115.170685 186.040588,121.550690 194.640457,128.169144 
	C194.966995,127.961090 195.948334,127.364685 196.900558,126.724960 
	C225.456085,107.540726 256.184998,102.056023 289.056030,113.100685 
	C314.964447,121.805908 335.421844,138.013138 348.552338,162.053864 
	C364.330353,190.941895 365.476410,221.099289 352.882324,251.593124 
	C345.692261,269.002228 335.611755,284.716125 319.382141,294.636444 
	C283.788513,316.392883 247.593170,337.163971 211.673218,358.387695 
	C187.625320,372.596710 163.669724,386.962585 139.563919,401.072205 
	C135.994370,403.161499 134.897247,405.625427 135.323135,409.529327 
	C136.171417,417.305084 136.703949,425.114929 137.398254,432.907928 
	C137.798370,437.398834 138.815598,437.961060 142.669342,435.738831 
	C149.429672,431.840515 156.162186,427.893646 162.890289,423.939758 
	C205.603287,398.838593 248.329483,373.759796 291.012909,348.608429 
	C307.198761,339.070801 323.843414,330.174164 339.282043,319.538361 
	C362.716858,303.393921 377.267670,280.230347 386.139374,253.530731 
	C397.534363,219.237167 395.441681,185.475006 379.629974,153.038467 
	C363.006531,118.936798 335.842285,96.188873 300.407166,83.294106 
	C277.680786,75.024017 254.325455,73.466515 229.759811,78.532158 
M315.894043,176.613159 
	C298.651428,149.902756 271.019043,138.430573 240.088486,145.140823 
	C213.681534,150.869705 192.774460,174.349152 188.528610,203.044571 
	C184.320450,231.485229 199.771957,260.839752 225.810059,273.871277 
	C251.864670,286.911072 285.056732,281.529785 305.285767,260.986206 
	C327.655151,238.269012 331.769806,206.832626 315.894043,176.613159 
M121.835625,229.805573 
	C125.012604,275.158142 128.189575,320.510681 131.428818,366.751923 
	C141.010803,361.193298 149.088257,356.234528 157.437286,351.785309 
	C161.309357,349.721863 162.145035,347.224915 161.799393,343.042938 
	C159.345291,313.350983 157.053238,283.644440 154.933044,253.926590 
	C153.799377,238.036484 153.109909,222.114716 152.201874,205.883484 
	C141.174118,205.399643 131.173126,201.966125 121.929520,195.120834 
	C121.586174,197.487350 121.169792,198.955383 121.194275,200.416016 
	C121.353271,209.899277 121.608162,219.380905 121.835625,229.805573 
M173.842209,143.808533 
	C165.574432,131.610428 151.316788,128.017670 139.513580,135.158127 
	C128.319412,141.930145 124.338165,156.878433 130.676926,168.336884 
	C137.319687,180.344894 151.721252,184.849808 163.706879,178.668915 
	C176.122650,172.266205 180.582443,157.671112 173.842209,143.808533 
z"/>
<path fill="#F4130C" opacity="1.000000" stroke="none" 
	d="
M230.174225,78.426651 
	C254.325455,73.466515 277.680786,75.024017 300.407166,83.294106 
	C335.842285,96.188873 363.006531,118.936798 379.629974,153.038467 
	C395.441681,185.475006 397.534363,219.237167 386.139374,253.530731 
	C377.267670,280.230347 362.716858,303.393921 339.282043,319.538361 
	C323.843414,330.174164 307.198761,339.070801 291.012909,348.608429 
	C248.329483,373.759796 205.603287,398.838593 162.890289,423.939758 
	C156.162186,427.893646 149.429672,431.840515 142.669342,435.738831 
	C138.815598,437.961060 137.798370,437.398834 137.398254,432.907928 
	C136.703949,425.114929 136.171417,417.305084 135.323135,409.529327 
	C134.897247,405.625427 135.994370,403.161499 139.563919,401.072205 
	C163.669724,386.962585 187.625320,372.596710 211.673218,358.387695 
	C247.593170,337.163971 283.788513,316.392883 319.382141,294.636444 
	C335.611755,284.716125 345.692261,269.002228 352.882324,251.593124 
	C365.476410,221.099289 364.330353,190.941895 348.552338,162.053864 
	C335.421844,138.013138 314.964447,121.805908 289.056030,113.100685 
	C256.184998,102.056023 225.456085,107.540726 196.900558,126.724960 
	C195.948334,127.364685 194.966995,127.961090 194.640457,128.169144 
	C186.040588,121.550690 177.750534,115.170685 168.675064,108.186218 
	C186.200119,93.528725 206.603485,83.332191 230.174225,78.426651 
z"/>
<path fill="#F99E2B" opacity="1.000000" stroke="none" 
	d="
M316.069733,176.933289 
	C331.769806,206.832626 327.655151,238.269012 305.285767,260.986206 
	C285.056732,281.529785 251.864670,286.911072 225.810059,273.871277 
	C199.771957,260.839752 184.320450,231.485229 188.528610,203.044571 
	C192.774460,174.349152 213.681534,150.869705 240.088486,145.140823 
	C271.019043,138.430573 298.651428,149.902756 316.069733,176.933289 
M274.877960,244.513809 
	C285.396271,238.313492 291.719513,229.278015 293.652466,217.145432 
	C296.439087,199.654510 284.762848,181.483444 267.311279,176.340836 
	C249.456970,171.079575 230.366028,179.650620 223.121948,196.180023 
	C216.532715,211.215271 219.569000,228.099625 230.813522,238.951859 
	C242.376633,250.111557 258.847748,252.362747 274.877960,244.513809 
z"/>
<path fill="#FAFDFA" opacity="1.000000" stroke="none" 
	d="
M121.833633,229.334320 
	C121.608162,219.380905 121.353271,209.899277 121.194275,200.416016 
	C121.169792,198.955383 121.586174,197.487350 121.929520,195.120834 
	C131.173126,201.966125 141.174118,205.399643 152.201874,205.883484 
	C153.109909,222.114716 153.799377,238.036484 154.933044,253.926590 
	C157.053238,283.644440 159.345291,313.350983 161.799393,343.042938 
	C162.145035,347.224915 161.309357,349.721863 157.437286,351.785309 
	C149.088257,356.234528 141.010803,361.193298 131.428818,366.751923 
	C128.189575,320.510681 125.012604,275.158142 121.833633,229.334320 
z"/>
<path fill="#F9FDF9" opacity="1.000000" stroke="none" 
	d="
M173.996399,144.149750 
	C180.582443,157.671112 176.122650,172.266205 163.706879,178.668915 
	C151.721252,184.849808 137.319687,180.344894 130.676926,168.336884 
	C124.338165,156.878433 128.319412,141.930145 139.513580,135.158127 
	C151.316788,128.017670 165.574432,131.610428 173.996399,144.149750 
z"/>
<path fill="#057F01" opacity="1.000000" stroke="none" 
	d="
M274.556152,244.700104 
	C258.847748,252.362747 242.376633,250.111557 230.813522,238.951859 
	C219.569000,228.099625 216.532715,211.215271 223.121948,196.180023 
	C230.366028,179.650620 249.456970,171.079575 267.311279,176.340836 
	C284.762848,181.483444 296.439087,199.654510 293.652466,217.145432 
	C291.719513,229.278015 285.396271,238.313492 274.556152,244.700104 
z"/>
</svg>